<svg style="object-fit:cover" id="my-svg" version="1" baseProfile="full" width="100%" height="100%" viewBox="0 0 1366 625" xmlns="http://www.w3.org/2000/svg"><rect width="1366" height="625" fill="#000"></rect><defs><linearGradient id="linear-gradient" x1="0" x2="1" y1="0" y2="1"><stop offset="0%" stop-color="#c81d1150"></stop><stop offset="100%" stop-color="#1c39bb50"></stop></linearGradient></defs><path transform="scale(1, 1)" style="transform-origin:center" d="M 0,625 V 0,500 V 330 H 97 V 624 H 177 V 609 H 254 V 546 H 327 V 354 H 424 V 607 H 504 V 478 H 585 V 529 H 679 V 492 H 758 V 560 H 855 V 417 H 951 V 529 H 1037 V 462 H 1099 V 588 H 1189 V 474 H 1285 V 500 H 1366 C 1366,500 1366,625 1366,625 Z" stroke="none" stroke-width="0" fill="url(#linear-gradient)" class="transition-all duration-300 ease-in-out delay-150"></path><defs><linearGradient id="linear-gradient" x1="0" x2="1" y1="0" y2="1"><stop offset="0%" stop-color="#c81d1160"></stop><stop offset="100%" stop-color="#1c39bb60"></stop></linearGradient></defs><path transform="scale(1, 1)" style="transform-origin: center center 0px;" d="M 0,625 V 0,750 V 843 H 87 V 917 H 167 V 623 H 251 V 677 H 342 V 620 H 426 V 604 H 500 V 926 H 598 V 902 H 694 V 593 H 775 V 587 H 840 V 734 H 948 V 624 H 1010 V 763 H 1107 V 592 H 1183 V 852 H 1278 V 750 H 1366 C 1366,750 1366,625 1366,625 Z" stroke="none" stroke-width="0" fill="url(#linear-gradient)" class="transition-all duration-300 ease-in-out delay-150"></path><defs><linearGradient id="linear-gradient" x1="0" x2="1" y1="0" y2="1"><stop offset="0%" stop-color="#c81d1170"></stop><stop offset="100%" stop-color="#1c39bb70"></stop></linearGradient></defs><path transform="scale(1, 1)" style="transform-origin: center center 0px;" d="M 0,625 V 0,1125 V 1119 H 82 V 1207 H 168 V 964 H 270 V 1250 H 349 V 1199 H 433 V 1214 H 497 V 1259 H 585 V 1117 H 669 V 1205 H 754 V 1223 H 866 V 1242 H 950 V 1197 H 1009 V 1137 H 1100 V 1188 H 1199 V 961 H 1276 V 1125 H 1366 C 1366,1125 1366,625 1366,625 Z" stroke="none" stroke-width="0" fill="url(#linear-gradient)" class="transition-all duration-300 ease-in-out delay-150"></path><defs><linearGradient id="linear-gradient" x1="0" x2="1" y1="0" y2="1"><stop offset="0%" stop-color="#c81d1180"></stop><stop offset="100%" stop-color="#1c39bb80"></stop></linearGradient></defs><path transform="scale(1, 1)" style="transform-origin: center center 0px;" d="M 0,625 V 0,1687 V 1684 H 91 V 1723 H 154 V 1500 H 260 V 1791 H 342 V 1759 H 441 V 1846 H 519 V 1637 H 606 V 1682 H 681 V 1704 H 774 V 1819 H 865 V 1699 H 942 V 1744 H 1029 V 1624 H 1104 V 1571 H 1187 V 1654 H 1280 V 1687 H 1366 C 1366,1687 1366,625 1366,625 Z" stroke="none" stroke-width="0" fill="url(#linear-gradient)" class="transition-all duration-300 ease-in-out delay-150"></path><defs><linearGradient id="linear-gradient" x1="0" x2="1" y1="0" y2="1"><stop offset="0%" stop-color="#c81d1190"></stop><stop offset="100%" stop-color="#1c39bb90"></stop></linearGradient></defs><path transform="scale(1, 1)" style="transform-origin: center center 0px;" d="M 0,625 V 0,2531 V 2697 H 96 V 2395 H 160 V 2473 H 265 V 2606 H 345 V 2514 H 418 V 2486 H 523 V 2469 H 601 V 2418 H 683 V 2696 H 763 V 2343 H 851 V 2601 H 935 V 2568 H 1036 V 2429 H 1118 V 2444 H 1202 V 2417 H 1277 V 2531 H 1366 C 1366,2531 1366,625 1366,625 Z" stroke="none" stroke-width="0" fill="url(#linear-gradient)" class="transition-all duration-300 ease-in-out delay-150"></path><defs><linearGradient id="linear-gradient" x1="0" x2="1" y1="0" y2="1"><stop offset="0%" stop-color="#c81d11ff"></stop><stop offset="100%" stop-color="#1c39bbff"></stop></linearGradient></defs><path transform="scale(1, 1)" style="transform-origin: center center 0px;" d="M 0,625 V 0,3796 V 3613 H 81 V 3887 H 167 V 3838 H 253 V 3946 H 328 V 3862 H 436 V 3655 H 520 V 3914 H 591 V 3834 H 678 V 3743 H 772 V 3621 H 840 V 3773 H 949 V 3772 H 1036 V 3652 H 1104 V 3837 H 1201 V 3759 H 1288 V 3796 H 1366 C 1366,3796 1366,625 1366,625 Z" stroke="none" stroke-width="0" fill="url(#linear-gradient)" class="transition-all duration-300 ease-in-out delay-150"></path></svg>