<svg style="object-fit:cover" id="my-svg" version="1" baseProfile="full" width="100%" height="100%" viewBox="0 0 1366 625" xmlns="http://www.w3.org/2000/svg"><rect width="1366" height="625" fill="#000"></rect><defs><linearGradient id="linear-gradient" x1="0" x2="1" y1="0" y2="1"><stop offset="0%" stop-color="#c81d1150"></stop><stop offset="100%" stop-color="#1c39bb50"></stop></linearGradient></defs><path transform="scale(1, 1)" style="transform-origin:center" d="M 0,625 V 0,375 V 259 H 389 V 488 H 713 V 479 H 1075 V 375 H 1366 C 1366,375 1366,625 1366,625 Z" stroke="none" stroke-width="0" fill="url(#linear-gradient)" class="transition-all duration-300 ease-in-out delay-150"></path><defs><linearGradient id="linear-gradient" x1="0" x2="1" y1="0" y2="1"><stop offset="0%" stop-color="#c81d1160"></stop><stop offset="100%" stop-color="#1c39bb60"></stop></linearGradient></defs><path transform="scale(1, 1)" style="transform-origin: center center 0px;" d="M 0,625 V 0,562 V 435 H 359 V 666 H 667 V 458 H 977 V 562 H 1366 C 1366,562 1366,625 1366,625 Z" stroke="none" stroke-width="0" fill="url(#linear-gradient)" class="transition-all duration-300 ease-in-out delay-150"></path><defs><linearGradient id="linear-gradient" x1="0" x2="1" y1="0" y2="1"><stop offset="0%" stop-color="#c81d1170"></stop><stop offset="100%" stop-color="#1c39bb70"></stop></linearGradient></defs><path transform="scale(1, 1)" style="transform-origin: center center 0px;" d="M 0,625 V 0,843 V 963 H 277 V 857 H 729 V 780 H 969 V 843 H 1366 C 1366,843 1366,625 1366,625 Z" stroke="none" stroke-width="0" fill="url(#linear-gradient)" class="transition-all duration-300 ease-in-out delay-150"></path><defs><linearGradient id="linear-gradient" x1="0" x2="1" y1="0" y2="1"><stop offset="0%" stop-color="#c81d1180"></stop><stop offset="100%" stop-color="#1c39bb80"></stop></linearGradient></defs><path transform="scale(1, 1)" style="transform-origin: center center 0px;" d="M 0,625 V 0,1265 V 1213 H 278 V 1339 H 705 V 1174 H 1015 V 1265 H 1366 C 1366,1265 1366,625 1366,625 Z" stroke="none" stroke-width="0" fill="url(#linear-gradient)" class="transition-all duration-300 ease-in-out delay-150"></path><defs><linearGradient id="linear-gradient" x1="0" x2="1" y1="0" y2="1"><stop offset="0%" stop-color="#c81d1190"></stop><stop offset="100%" stop-color="#1c39bb90"></stop></linearGradient></defs><path transform="scale(1, 1)" style="transform-origin: center center 0px;" d="M 0,625 V 0,1898 V 1960 H 277 V 1871 H 676 V 1983 H 1025 V 1898 H 1366 C 1366,1898 1366,625 1366,625 Z" stroke="none" stroke-width="0" fill="url(#linear-gradient)" class="transition-all duration-300 ease-in-out delay-150"></path><defs><linearGradient id="linear-gradient" x1="0" x2="1" y1="0" y2="1"><stop offset="0%" stop-color="#c81d11ff"></stop><stop offset="100%" stop-color="#1c39bbff"></stop></linearGradient></defs><path transform="scale(1, 1)" style="transform-origin: center center 0px;" d="M 0,625 V 0,2847 V 2763 H 350 V 2813 H 621 V 2894 H 1012 V 2847 H 1366 C 1366,2847 1366,625 1366,625 Z" stroke="none" stroke-width="0" fill="url(#linear-gradient)" class="transition-all duration-300 ease-in-out delay-150"></path></svg>