<svg style="object-fit:cover" id="my-svg" version="1" baseProfile="full" width="100%" height="100%" viewBox="0 0 1356 616" xmlns="http://www.w3.org/2000/svg"><rect width="1356" height="616" fill="#000"></rect><defs><linearGradient id="linear-gradient" x1="0" x2="1" y1="0" y2="1"><stop offset="0%" stop-color="#c81d1190"></stop><stop offset="100%" stop-color="#1c39bb90"></stop></linearGradient></defs><path transform="scale(1, 1)" style="transform-origin:center" d="M 0,616 V 0,123 V 123 H 13 V 84 H 27 V 132 H 40 V 108 H 55 V 153 H 66 V 84 H 82 V 119 H 96 V 124 H 108 V 136 H 119 V 149 H 135 V 90 H 151 V 153 H 164 V 85 H 176 V 105 H 190 V 133 H 201 V 168 H 218 V 81 H 228 V 165 H 244 V 115 H 257 V 118 H 270 V 164 H 283 V 103 H 297 V 98 H 310 V 94 H 324 V 142 H 336 V 114 H 352 V 159 H 364 V 109 H 381 V 106 H 395 V 114 H 408 V 165 H 418 V 151 H 436 V 102 H 445 V 150 H 463 V 80 H 472 V 90 H 485 V 140 H 502 V 121 H 512 V 133 H 529 V 107 H 541 V 88 H 556 V 103 H 570 V 143 H 584 V 99 H 596 V 98 H 610 V 89 H 623 V 123 H 639 V 99 H 648 V 87 H 662 V 108 H 676 V 148 H 690 V 100 H 703 V 93 H 720 V 161 H 731 V 117 H 746 V 106 H 759 V 134 H 771 V 104 H 785 V 131 H 802 V 168 H 815 V 134 H 828 V 110 H 842 V 101 H 853 V 85 H 868 V 119 H 881 V 110 H 897 V 96 H 910 V 117 H 921 V 112 H 936 V 118 H 949 V 80 H 962 V 164 H 975 V 89 H 988 V 122 H 1004 V 152 H 1018 V 99 H 1032 V 80 H 1044 V 132 H 1057 V 159 H 1071 V 129 H 1084 V 110 H 1096 V 109 H 1113 V 129 H 1122 V 83 H 1138 V 95 H 1151 V 158 H 1164 V 81 H 1177 V 91 H 1192 V 93 H 1208 V 96 H 1218 V 157 H 1233 V 118 H 1247 V 106 H 1259 V 107 H 1275 V 97 H 1286 V 168 H 1300 V 163 H 1312 V 126 H 1330 V 143 H 1343 V 108 H 1355 V 123 H 1356 C 1356,123 1356,616 1356,616 Z" stroke="none" stroke-width="0" fill="url(#linear-gradient)" class="transition-all duration-300 ease-in-out delay-150"></path><defs><linearGradient id="linear-gradient" x1="0" x2="1" y1="0" y2="1"><stop offset="0%" stop-color="#c81d11ff"></stop><stop offset="100%" stop-color="#1c39bbff"></stop></linearGradient></defs><path transform="scale(1, 1)" style="transform-origin:center" d="M 0,616 V 0,184 V 180 H 12 V 181 H 29 V 192 H 39 V 153 H 56 V 224 H 66 V 150 H 80 V 169 H 95 V 182 H 107 V 201 H 123 V 159 H 134 V 198 H 147 V 157 H 164 V 171 H 173 V 146 H 188 V 157 H 201 V 216 H 218 V 185 H 229 V 219 H 246 V 181 H 256 V 166 H 272 V 194 H 287 V 152 H 299 V 145 H 310 V 152 H 324 V 140 H 337 V 156 H 353 V 182 H 367 V 221 H 381 V 154 H 392 V 210 H 408 V 160 H 421 V 175 H 436 V 146 H 445 V 213 H 461 V 161 H 473 V 187 H 489 V 175 H 502 V 216 H 513 V 187 H 526 V 158 H 541 V 167 H 554 V 176 H 570 V 188 H 584 V 145 H 597 V 199 H 610 V 213 H 624 V 202 H 638 V 205 H 651 V 143 H 661 V 221 H 676 V 140 H 689 V 165 H 705 V 157 H 716 V 230 H 733 V 171 H 744 V 195 H 760 V 188 H 770 V 204 H 784 V 187 H 799 V 156 H 813 V 160 H 828 V 219 H 838 V 163 H 855 V 172 H 866 V 145 H 880 V 202 H 894 V 160 H 906 V 140 H 923 V 156 H 936 V 148 H 949 V 173 H 960 V 151 H 977 V 173 H 991 V 226 H 1003 V 169 H 1018 V 176 H 1030 V 147 H 1045 V 177 H 1058 V 226 H 1072 V 190 H 1084 V 175 H 1099 V 146 H 1111 V 140 H 1124 V 176 H 1138 V 222 H 1152 V 155 H 1163 V 158 H 1177 V 150 H 1194 V 206 H 1208 V 165 H 1222 V 165 H 1236 V 158 H 1248 V 148 H 1259 V 230 H 1276 V 183 H 1286 V 200 H 1302 V 161 H 1313 V 208 H 1326 V 213 H 1342 V 149 H 1353 V 184 H 1356 C 1356,184 1356,616 1356,616 Z" stroke="none" stroke-width="0" fill="url(#linear-gradient)" class="transition-all duration-300 ease-in-out delay-150"></path></svg>